HIERARCHY
ROOT Hips
{
 OFFSET 0.000000 0.000000 0.000000
 CHANNELS 6 Xposition Yposition Zposition Yrotation Xrotation Zrotation
 JOINT Chest
 {
  OFFSET 0.000000 9.585900 0.002600
  CHANNELS 3 Yrotation Xrotation Zrotation
  JOINT Chest2
  {
   OFFSET 0.000000 9.601200 -0.005300
   CHANNELS 3 Yrotation Xrotation Zrotation
   JOINT Chest3
   {
    OFFSET 0.000000 9.561800 0.000000
    CHANNELS 3 Yrotation Xrotation Zrotation
    JOINT Chest4
    {
     OFFSET 0.000000 9.552100 0.000000
     CHANNELS 3 Yrotation Xrotation Zrotation
     JOINT Neck
     {
      OFFSET 0.000000 14.453000 0.000000
      CHANNELS 3 Yrotation Xrotation Zrotation
      JOINT Head
      {
       OFFSET 0.000000 8.936500 -0.011300
       CHANNELS 3 Yrotation Xrotation Zrotation
       End Site
       {
        OFFSET 0.000000 17.073600 -0.006000
       }
      }
     }
     JOINT RightCollar
     {
      OFFSET -2.921100 9.558500 0.000000
      CHANNELS 3 Yrotation Xrotation Zrotation
      JOINT RightShoulder
      {
       OFFSET -13.519700 0.000000 0.000000
       CHANNELS 3 Yrotation Xrotation Zrotation
       JOINT RightElbow
       {
        OFFSET 0.000000 -29.696600 0.000000
        CHANNELS 3 Yrotation Xrotation Zrotation
        JOINT RightWrist
        {
         OFFSET 0.000000 -24.004700 0.000000
         CHANNELS 3 Yrotation Xrotation Zrotation
         End Site
         {
          OFFSET 0.000000 -17.728500 0.000000
         }
        }
       }
      }
     }
     JOINT LeftCollar
     {
      OFFSET 2.921100 9.558500 0.000000
      CHANNELS 3 Yrotation Xrotation Zrotation
      JOINT LeftShoulder
      {
       OFFSET 13.519700 0.000000 0.000000
       CHANNELS 3 Yrotation Xrotation Zrotation
       JOINT LeftElbow
       {
        OFFSET 0.000000 -29.696600 0.000000
        CHANNELS 3 Yrotation Xrotation Zrotation
        JOINT LeftWrist
        {
         OFFSET 0.000000 -24.004700 0.000000
         CHANNELS 3 Yrotation Xrotation Zrotation
         End Site
         {
          OFFSET 0.000000 -17.728500 0.000000
         }
        }
       }
      }
     }
    }
   }
  }
 }
 JOINT RightHip
 {
  OFFSET -7.771700 -0.012900 -0.001300
  CHANNELS 3 Yrotation Xrotation Zrotation
  JOINT RightKnee
  {
   OFFSET 0.000000 -40.869800 0.001200
   CHANNELS 3 Yrotation Xrotation Zrotation
   JOINT RightAnkle
   {
    OFFSET 0.000000 -39.717900 0.002100
    CHANNELS 3 Yrotation Xrotation Zrotation
    JOINT RightToe
    {
     OFFSET 0.000000 -4.965400 11.033500
     CHANNELS 3 Yrotation Xrotation Zrotation
     End Site
     {
      OFFSET 0.000000 -1.423100 5.872300
     }
    }
   }
  }
 }
 JOINT LeftHip
 {
  OFFSET 7.771700 -0.012900 -0.001300
  CHANNELS 3 Yrotation Xrotation Zrotation
  JOINT LeftKnee
  {
   OFFSET 0.000000 -40.869800 0.001200
   CHANNELS 3 Yrotation Xrotation Zrotation
   JOINT LeftAnkle
   {
    OFFSET 0.000000 -39.717900 0.002100
    CHANNELS 3 Yrotation Xrotation Zrotation
    JOINT LeftToe
    {
     OFFSET 0.000000 -4.965400 11.033500
     CHANNELS 3 Yrotation Xrotation Zrotation
     End Site
     {
      OFFSET 0.000000 -1.423100 5.872300
     }
    }
   }
  }
 }
}
MOTION
Frames: 16
Frame Time: 0.008333
0.000000 85.388000 0.000000 0.000000 -5.767877 0.000000 0.000000 11.653817 0.000000 0.000000 -5.885947 0.000000 0.000000 -0.000000 0.000000 0.000000 -0.000000 0.000000 0.000000 12.528835 0.000000 0.000000 0.711642 0.000000 0.000000 -0.000000 0.000000 0.000000 0.000000 -90.000000 0.000000 -2.309062 0.000000 0.000000 2.309062 0.000000 0.000000 -0.000000 0.000000 0.000000 -0.000000 90.000000 0.000000 -2.309062 0.000000 0.000000 2.309062 0.000000 0.000000 8.520406 0.000000 0.000000 1.905762 0.000000 -0.000000 -4.658285 0.000000 0.000000 -0.000000 0.000000 0.000000 8.520406 0.000000 0.000000 1.905762 0.000000 -0.000000 -4.658285 0.000000 0.000000 -0.000000 0.000000
-104.530891 57.826245 96.206618 178.575129 -33.374654 -0.747457 1.948808 20.132212 2.956740 0.193975 2.524610 0.338984 0.326145 4.138571 0.560778 1.670394 17.212889 2.556131 6.429358 15.766743 -5.217537 13.796718 -5.565461 -11.968582 4.106259 -4.677573 -1.015839 27.937712 -31.501565 -32.210486 -1.336491 -83.733002 39.823526 8.686240 -10.033429 -42.519503 -7.142974 -5.834587 -2.389537 -1.760192 -20.558937 6.869139 44.790557 -68.035714 -71.829766 2.914030 -0.031448 16.161866 6.701995 -41.973397 -2.454972 -12.073299 68.337523 -16.766822 7.726896 21.856092 9.705449 -0.458382 -15.986948 1.542356 -7.790753 -39.519100 2.181498 23.397208 65.223831 18.740796 -16.811893 6.902180 -1.819854 0.206914 -0.046071 0.041573
-104.535958 57.814569 96.228977 178.652594 -33.427405 -0.739287 1.975572 20.039451 2.980650 0.198277 2.512850 0.339171 0.333231 4.120189 0.561302 1.704480 17.176768 2.567520 5.993648 15.844184 -5.188133 12.969617 -5.496003 -11.754704 4.300892 -4.628237 -1.015050 28.381389 -32.433910 -32.300738 -0.647090 -82.821940 38.742304 7.711326 -9.701822 -41.625496 -7.189825 -5.828182 -2.466276 -1.427072 -21.603965 7.137835 44.773538 -67.181047 -71.719995 3.060673 -0.275117 16.431334 6.700281 -41.913194 -2.542208 -12.093342 68.326630 -16.759879 7.715236 21.832110 9.685586 -0.459079 -15.949198 1.552800 -7.851308 -39.476840 2.137921 23.388468 65.166260 18.699958 -16.827155 6.981571 -1.841288 0.243011 -0.043911 0.056872
-104.542411 57.804201 96.250324 178.752607 -33.510697 -0.740531 1.977413 19.986654 3.002780 0.201829 2.501602 0.340086 0.339076 4.102586 0.562899 1.733898 17.141888 2.582767 5.528237 15.911030 -5.176054 12.095291 -5.445078 -11.564400 4.504509 -4.570206 -1.023545 28.716177 -33.363141 -32.283868 -0.465999 -81.882001 38.109993 6.613391 -9.437267 -40.653765 -7.237360 -5.817027 -2.537627 -0.989665 -22.617530 7.301342 44.817839 -66.262397 -71.729367 3.223690 -0.534979 16.659792 6.709624 -41.821386 -2.658400 -12.104986 68.324128 -16.719591 7.743742 21.784361 9.700862 -0.493067 -15.900135 1.540405 -7.959162 -39.411248 2.111156 23.417056 65.122268 18.671528 -16.889334 7.054808 -1.893136 0.289652 -0.045031 0.095146
-104.551290 57.791368 96.276231 178.895163 -33.571470 -0.763325 1.939906 19.919888 3.022544 0.204893 2.491891 0.341551 0.344185 4.087351 0.565474 1.759943 17.111154 2.600932 5.036885 15.968715 -5.176851 11.178788 -5.409990 -11.390272 4.712597 -4.508835 -1.033028 28.948260 -34.291863 -32.174994 -0.807115 -80.873193 37.948078 5.445459 -9.273019 -39.718630 -7.292470 -5.806958 -2.602362 -0.485579 -23.580917 7.355916 44.947599 -65.305720 -71.823523 3.412519 -0.844761 16.916281 6.718640 -41.751171 -2.813886 -12.152720 68.327070 -16.679260 7.746009 21.747194 9.677698 -0.496856 -15.860539 1.544970 -8.084145 -39.367310 2.070721 23.456634 65.040064 18.684304 -16.976884 7.163693 -1.978765 0.365854 -0.058446 0.138854
-104.558574 57.784171 96.294467 178.947523 -33.688691 -0.763580 1.987084 19.915861 3.074006 0.207813 2.484154 0.343319 0.349124 4.075171 0.568578 1.784879 17.085863 2.620376 4.525962 16.015697 -5.186661 10.230835 -5.393208 -11.227231 4.921147 -4.451371 -1.036069 29.085809 -35.215091 -31.983609 -1.730245 -79.770130 38.315899 4.272067 -9.185530 -38.930876 -7.356454 -5.806245 -2.662267 0.034650 -24.478594 7.310017 45.213194 -64.330159 -71.970560 3.628605 -1.244864 17.291592 6.781410 -41.633032 -2.928488 -12.148200 68.336403 -16.594994 7.752127 21.728911 9.679580 -0.535200 -15.839461 1.548330 -8.135915 -39.266583 2.047300 23.485474 65.025358 18.681387 -16.984812 7.193455 -1.996613 0.407396 -0.046382 0.153602
-104.569233 57.776945 96.313082 178.994119 -33.795469 -0.765264 2.037501 19.906170 3.128217 0.210918 2.478060 0.345360 0.354278 4.065537 0.572099 1.810603 17.065027 2.640931 4.003599 16.052353 -5.202465 9.265200 -5.393251 -11.072323 5.126591 -4.398645 -1.029650 29.149084 -36.120848 -31.717437 -3.274451 -78.555445 39.220624 3.122845 -9.130074 -38.338317 -7.429860 -5.812762 -2.721627 0.532629 -25.302033 7.173421 45.635886 -63.383154 -72.124959 3.891688 -1.772846 17.874554 6.868807 -41.527728 -3.065452 -12.138106 68.347550 -16.479210 7.760604 21.724570 9.674702 -0.545618 -15.829311 1.545258 -8.202711 -39.183480 2.033458 23.553673 65.016008 18.710741 -16.997993 7.236675 -2.012675 0.432768 -0.051523 0.163338
-104.586565 57.768778 96.332875 179.037508 -33.881880 -0.754854 2.082198 19.875795 3.165085 0.214457 2.473328 0.347757 0.360134 4.058066 0.576115 1.839157 17.047820 2.663286 3.477698 16.082073 -5.222777 8.295277 -5.402866 -10.925016 5.324184 -4.347467 -1.010778 29.167375 -36.994786 -31.387585 -5.415681 -77.219490 40.592390 2.005388 -9.107294 -37.965008 -7.517638 -5.815770 -2.781470 0.990689 -26.054135 6.952740 46.199282 -62.513169 -72.243935 4.232175 -2.458819 18.713420 6.993616 -41.442472 -3.247528 -12.120723 68.358621 -16.333733 7.777007 21.729853 9.668267 -0.564033 -15.825142 1.545406 -8.212740 -39.108293 1.970363 23.563609 64.973275 18.733874 -17.040483 7.275858 -2.063960 0.474051 -0.039952 0.186614
-104.608307 57.760803 96.351753 179.064838 -33.962800 -0.741231 2.140172 19.838295 3.200739 0.218783 2.469780 0.350400 0.367346 4.052460 0.580418 1.873342 17.033629 2.687081 2.955048 16.109270 -5.247057 7.333047 -5.413257 -10.786171 5.508153 -4.295375 -0.975314 29.172349 -37.820896 -31.007569 -8.111553 -75.769013 42.338052 0.916646 -9.132393 -37.797203 -7.624670 -5.808954 -2.836418 1.405334 -26.741691 6.650174 46.896829 -61.728573 -72.325502 4.663891 -3.314631 19.782961 7.146686 -41.365949 -3.442198 -12.145162 68.354383 -16.221484 7.887048 21.766519 9.729832 -0.625867 -15.849650 1.512879 -8.213247 -39.037103 1.912044 23.593955 64.932847 18.777344 -17.146333 7.296025 -2.146773 0.576428 -0.017582 0.235167
-104.638918 57.751629 96.371122 179.107493 -34.027828 -0.715921 2.179565 19.785602 3.209376 0.224033 2.466745 0.352778 0.375976 4.047619 0.584365 1.913429 17.020559 2.709598 2.442384 16.140054 -5.273284 6.389646 -5.412719 -10.653810 5.673531 -4.235744 -0.921778 29.188814 -38.584023 -30.588387 -11.291648 -74.206706 44.337856 -0.128551 -9.213140 -37.800760 -7.756665 -5.788471 -2.879850 1.791223 -27.366194 6.264579 47.752947 -61.007903 -72.417119 5.174213 -4.342958 21.005965 7.317003 -41.305221 -3.680186 -12.127092 68.370465 -16.061694 7.933424 21.804119 9.756856 -0.661915 -15.877988 1.502497 -8.250966 -38.994757 1.792307 23.762654 64.861740 18.988347 -17.193149 7.360507 -2.237806 0.620341 -0.018010 0.256195
-104.670767 57.745115 96.385161 179.114254 -34.122145 -0.693806 2.261008 19.759882 3.239936 0.230157 2.463362 0.354562 0.386006 4.042291 0.587497 1.959160 17.006360 2.729171 1.944054 16.178932 -5.298102 5.471486 -5.392950 -10.522826 5.813120 -4.159814 -0.849238 29.235213 -39.273859 -30.137451 -14.901734 -72.532990 46.519900 -1.108110 -9.376453 -37.966527 -7.918152 -5.748574 -2.912264 2.161075 -27.922041 5.802774 48.834347 -60.307942 -72.607310 5.732486 -5.526387 22.273465 7.497693 -41.217370 -3.888601 -12.088350 68.388191 -15.876950 7.974190 21.848471 9.781619 -0.686024 -15.913123 1.490144 -8.258739 -38.916096 1.709657 23.855656 64.827725 19.104120 -17.197368 7.386850 -2.290294 0.638478 -0.012885 0.271676
-104.705396 57.739205 96.396631 179.130482 -34.226572 -0.688222 2.338632 19.743713 3.273477 0.237091 2.459402 0.356088 0.397476 4.036069 0.590219 2.010814 16.990139 2.748032 1.463382 16.223326 -5.319332 4.584468 -5.358927 -10.390898 5.922047 -4.066098 -0.762984 29.320890 -39.888411 -29.650967 -18.893340 -70.746219 48.828238 -2.033876 -9.657171 -38.262700 -8.104854 -5.682631 -2.938059 2.516984 -28.405864 5.275622 50.246663 -59.559750 -73.017626 6.292774 -6.796373 23.470705 7.658090 -41.120235 -4.081447 -12.028634 68.407664 -15.669299 7.997195 21.915799 9.796860 -0.698204 -15.968691 1.480443 -8.285578 -38.827580 1.635073 23.946305 64.798974 19.219452 -17.192947 7.409513 -2.336362 0.648352 -0.007487 0.280580
-104.743173 57.732863 96.406984 179.148468 -34.331941 -0.688875 2.412367 19.730147 3.300919 0.244355 2.454889 0.357654 0.409527 4.028913 0.592965 2.065245 16.971803 2.767765 1.005917 16.266963 -5.336529 3.739319 -5.321921 -10.259919 6.002720 -3.956299 -0.671900 29.438697 -40.433249 -29.119700 -23.127049 -68.860159 51.108385 -2.928202 -10.058119 -38.642181 -8.283469 -5.572301 -2.938946 2.864612 -28.832573 4.651164 52.038584 -58.716616 -73.714876 6.806049 -8.069524 24.558215 7.804163 -41.017352 -4.262162 -11.957566 68.429387 -15.455997 8.008045 21.948028 9.799305 -0.703536 -15.995257 1.477991 -8.316890 -38.739033 1.562254 24.036349 64.772966 19.337717 -17.192348 7.429562 -2.381149 0.666505 -0.001492 0.286928
-104.781418 57.724591 96.418588 179.147785 -34.422852 -0.696401 2.501219 19.704295 3.337404 0.251584 2.449506 0.359258 0.421499 4.020402 0.595835 2.120019 16.950640 2.788401 0.577105 16.305522 -5.349747 2.946446 -5.289530 -10.132022 6.055346 -3.826239 -0.579309 29.567960 -40.916652 -28.539443 -27.444539 -66.928198 53.242706 -3.774226 -10.557134 -39.153526 -8.459915 -5.452730 -2.937949 3.234460 -29.174578 3.944352 54.147044 -57.809852 -74.646865 7.252574 -9.307228 25.581647 7.942269 -40.927148 -4.417795 -11.850888 68.438802 -15.209698 8.001594 21.986318 9.790338 -0.703184 -16.015436 1.479629 -8.348487 -38.664274 1.513386 24.147701 64.750738 19.467906 -17.178783 7.443689 -2.404924 0.672742 0.009090 0.283873
-104.819253 57.716832 96.428095 179.142300 -34.524577 -0.719932 2.594144 19.691036 3.386347 0.258837 2.443142 0.360896 0.433462 4.010408 0.598818 2.175399 16.926517 2.809959 0.182744 16.337033 -5.358882 2.216763 -5.265367 -10.009074 6.077901 -3.672931 -0.486812 29.682759 -41.343200 -27.907327 -31.731379 -65.010921 55.188685 -4.541111 -11.152729 -39.872148 -8.653275 -5.325097 -2.951538 3.660943 -29.442415 3.172735 56.474604 -56.922797 -75.715238 7.630161 -10.483390 26.557802 8.062862 -40.827853 -4.545905 -11.765245 68.444526 -14.984495 8.013729 22.031543 9.781678 -0.704043 -16.043626 1.482189 -8.371191 -38.571461 1.503941 24.222063 64.740762 19.543147 -17.183575 7.438333 -2.417188 0.686643 0.028229 0.290082
-104.854721 57.706695 96.440063 179.124818 -34.605460 -0.764595 2.699693 19.657117 3.454297 0.266143 2.436144 0.362349 0.445424 3.999444 0.601468 2.231111 16.900582 2.830491 -0.170085 16.361968 -5.362169 1.562562 -5.248603 -9.890291 6.074671 -3.502210 -0.392400 29.760357 -41.711505 -27.222929 -35.954376 -63.152870 56.957405 -5.181383 -11.827091 -40.782359 -8.852117 -5.161523 -2.981696 4.146999 -29.673379 2.343097 58.951944 -56.111972 -76.821587 7.921010 -11.527726 27.368699 8.178265 -40.751545 -4.649078 -11.827681 68.421887 -14.883946 8.080558 22.098257 9.772403 -0.708371 -16.079098 1.481153 -8.409559 -38.496736 1.528920 24.264540 64.730945 19.614513 -17.208351 7.423824 -2.471769 0.734644 0.053306 0.310109
